<svg width="264" height="27" viewBox="0 0 264 27" fill="none" xmlns="http://www.w3.org/2000/svg">
<mask id="mask0_54801_25208" style="mask-type:luminance" maskUnits="userSpaceOnUse" x="238" y="2" width="26" height="23">
<path d="M260 18.1667H244.833L241.917 6.5H262.917L260 18.1667Z" fill="#555555"/>
<path d="M239 3H241.042L241.917 6.5M241.917 6.5L244.833 18.1667H260L262.917 6.5H241.917Z" stroke="white" stroke-width="1.83333" stroke-linecap="round" stroke-linejoin="round"/>
<path d="M244.833 24C245.8 24 246.583 23.2165 246.583 22.25C246.583 21.2835 245.8 20.5 244.833 20.5C243.867 20.5 243.083 21.2835 243.083 22.25C243.083 23.2165 243.867 24 244.833 24Z" stroke="white" stroke-width="1.83333" stroke-linecap="round" stroke-linejoin="round"/>
<path d="M260 24C260.966 24 261.75 23.2165 261.75 22.25C261.75 21.2835 260.966 20.5 260 20.5C259.034 20.5 258.25 21.2835 258.25 22.25C258.25 23.2165 259.034 24 260 24Z" stroke="white" stroke-width="1.83333" stroke-linecap="round" stroke-linejoin="round"/>
</mask>
<g mask="url(#mask0_54801_25208)">
<path d="M237.25 -0.5H265.25V27.5H237.25V-0.5Z" fill="#0582C8"/>
</g>
<mask id="mask1_54801_25208" style="mask-type:luminance" maskUnits="userSpaceOnUse" x="0" y="0" width="23" height="23">
<path d="M1 7.63159H22L19.6789 22H3.32105L1 7.63159Z" fill="#555555" stroke="white" stroke-width="1.89474" stroke-linecap="round" stroke-linejoin="round"/>
<path d="M17.579 7.63158C17.579 3.96929 14.8573 1 11.5001 1C8.14285 1 5.42114 3.96929 5.42114 7.63158" stroke="white" stroke-width="1.89474" stroke-linecap="round" stroke-linejoin="round"/>
<path d="M7.63151 13.7105C8.24193 13.7105 8.73677 13.2157 8.73677 12.6053C8.73677 11.9948 8.24193 11.5 7.63151 11.5C7.02109 11.5 6.52625 11.9948 6.52625 12.6053C6.52625 13.2157 7.02109 13.7105 7.63151 13.7105Z" fill="white"/>
<path d="M8.18433 16.4736C8.18433 16.4736 9.28959 18.1315 11.5001 18.1315C13.7106 18.1315 14.8159 16.4736 14.8159 16.4736" stroke="white" stroke-width="1.89474" stroke-linecap="round" stroke-linejoin="round"/>
<path d="M15.3684 13.7105C15.9789 13.7105 16.4737 13.2157 16.4737 12.6053C16.4737 11.9948 15.9789 11.5 15.3684 11.5C14.758 11.5 14.2632 11.9948 14.2632 12.6053C14.2632 13.2157 14.758 13.7105 15.3684 13.7105Z" fill="white"/>
</mask>
<g mask="url(#mask1_54801_25208)">
<path d="M-2.76318 -1.76312H23.7631V24.7632H-2.76318V-1.76312Z" fill="#0582C8"/>
</g>
<path d="M44.5391 19.0469V22H35.9258V19.0469H44.5391ZM37.2266 4.9375V22H33.4062V4.9375H37.2266ZM49.832 9.32031V22H46.1641V9.32031H49.832ZM45.9414 6.03906C45.9414 5.50781 46.1289 5.07422 46.5039 4.73828C46.8789 4.39453 47.3711 4.22266 47.9805 4.22266C48.5898 4.22266 49.082 4.39453 49.457 4.73828C49.8398 5.07422 50.0312 5.50781 50.0312 6.03906C50.0312 6.5625 49.8398 6.99609 49.457 7.33984C49.082 7.67578 48.5898 7.84375 47.9805 7.84375C47.3711 7.84375 46.8789 7.67578 46.5039 7.33984C46.1289 6.99609 45.9414 6.5625 45.9414 6.03906ZM58.9688 18.4727C58.9688 18.2383 58.8945 18.0312 58.7461 17.8516C58.6055 17.6719 58.3477 17.5078 57.9727 17.3594C57.6055 17.2109 57.0859 17.0625 56.4141 16.9141C55.7812 16.7812 55.1914 16.6094 54.6445 16.3984C54.0977 16.1797 53.6211 15.918 53.2148 15.6133C52.8086 15.3008 52.4922 14.9336 52.2656 14.5117C52.0391 14.082 51.9258 13.5938 51.9258 13.0469C51.9258 12.5156 52.0391 12.0117 52.2656 11.5352C52.5 11.0586 52.8359 10.6367 53.2734 10.2695C53.7188 9.90234 54.2578 9.61328 54.8906 9.40234C55.5312 9.19141 56.2578 9.08594 57.0703 9.08594C58.1875 9.08594 59.1523 9.26172 59.9648 9.61328C60.7773 9.95703 61.4023 10.4414 61.8398 11.0664C62.2773 11.6836 62.4961 12.3906 62.4961 13.1875H58.8398C58.8398 12.8594 58.7773 12.5742 58.6523 12.332C58.5273 12.0898 58.3359 11.9023 58.0781 11.7695C57.8203 11.6289 57.4805 11.5586 57.0586 11.5586C56.7305 11.5586 56.4414 11.6172 56.1914 11.7344C55.9492 11.8438 55.7578 11.9961 55.6172 12.1914C55.4844 12.3867 55.418 12.6133 55.418 12.8711C55.418 13.0508 55.457 13.2148 55.5352 13.3633C55.6211 13.5039 55.75 13.6367 55.9219 13.7617C56.1016 13.8789 56.332 13.9844 56.6133 14.0781C56.9023 14.1719 57.2539 14.2617 57.668 14.3477C58.5508 14.5117 59.3555 14.7422 60.082 15.0391C60.8164 15.3359 61.4023 15.7461 61.8398 16.2695C62.2852 16.793 62.5078 17.4844 62.5078 18.3438C62.5078 18.9062 62.3789 19.4219 62.1211 19.8906C61.8711 20.3594 61.5078 20.7695 61.0312 21.1211C60.5547 21.4727 59.9844 21.7461 59.3203 21.9414C58.6562 22.1367 57.9062 22.2344 57.0703 22.2344C55.875 22.2344 54.8633 22.0195 54.0352 21.5898C53.207 21.1602 52.582 20.6211 52.1602 19.9727C51.7461 19.3164 51.5391 18.6445 51.5391 17.957H54.9727C54.9883 18.3789 55.0938 18.7227 55.2891 18.9883C55.4922 19.2539 55.7539 19.4492 56.0742 19.5742C56.3945 19.6914 56.7539 19.75 57.1523 19.75C57.5508 19.75 57.8828 19.6953 58.1484 19.5859C58.4141 19.4766 58.6172 19.3281 58.7578 19.1406C58.8984 18.9453 58.9688 18.7227 58.9688 18.4727ZM70.7422 9.32031V11.8867H63.2188V9.32031H70.7422ZM64.9414 6.17969H68.6094V18.0273C68.6094 18.3789 68.6523 18.6484 68.7383 18.8359C68.8242 19.0234 68.9648 19.1562 69.1602 19.2344C69.3555 19.3047 69.6055 19.3398 69.9102 19.3398C70.1289 19.3398 70.3164 19.332 70.4727 19.3164C70.6289 19.3008 70.7734 19.2812 70.9062 19.2578V21.9062C70.5938 22.0078 70.2617 22.0859 69.9102 22.1406C69.5586 22.2031 69.1758 22.2344 68.7617 22.2344C67.9727 22.2344 67.2891 22.1055 66.7109 21.8477C66.1406 21.5898 65.7031 21.1836 65.3984 20.6289C65.0938 20.0664 64.9414 19.3359 64.9414 18.4375V6.17969ZM78.9648 18.9766V13.5391C78.9648 13.1562 78.9062 12.8281 78.7891 12.5547C78.6719 12.2812 78.4883 12.0664 78.2383 11.9102C77.9883 11.7539 77.6641 11.6758 77.2656 11.6758C76.9297 11.6758 76.6367 11.7344 76.3867 11.8516C76.1445 11.9688 75.957 12.1367 75.8242 12.3555C75.6992 12.5742 75.6367 12.8438 75.6367 13.1641H71.9805C71.9805 12.5938 72.1094 12.0625 72.3672 11.5703C72.625 11.0781 72.9922 10.6445 73.4688 10.2695C73.9531 9.89453 74.5312 9.60547 75.2031 9.40234C75.875 9.19141 76.6289 9.08594 77.4648 9.08594C78.457 9.08594 79.3398 9.25391 80.1133 9.58984C80.8945 9.91797 81.5117 10.4141 81.9648 11.0781C82.418 11.7344 82.6445 12.5625 82.6445 13.5625V18.8711C82.6445 19.6367 82.6875 20.2383 82.7734 20.6758C82.8672 21.1055 83 21.4805 83.1719 21.8008V22H79.4805C79.3086 21.6328 79.1797 21.1797 79.0938 20.6406C79.0078 20.0938 78.9648 19.5391 78.9648 18.9766ZM79.4219 14.2656L79.4453 16.2812H77.6289C77.2227 16.2812 76.8711 16.332 76.5742 16.4336C76.2852 16.5352 76.0508 16.6758 75.8711 16.8555C75.6914 17.0273 75.5586 17.2305 75.4727 17.4648C75.3945 17.6914 75.3555 17.9414 75.3555 18.2148C75.3555 18.4727 75.418 18.707 75.543 18.918C75.668 19.1211 75.8398 19.2812 76.0586 19.3984C76.2773 19.5156 76.5312 19.5742 76.8203 19.5742C77.2969 19.5742 77.7031 19.4805 78.0391 19.293C78.3828 19.1055 78.6484 18.8789 78.8359 18.6133C79.0234 18.3398 79.1172 18.0859 79.1172 17.8516L79.9961 19.375C79.8555 19.6875 79.6836 20.0117 79.4805 20.3477C79.2773 20.6758 79.0195 20.9844 78.707 21.2734C78.3945 21.5547 78.0156 21.7852 77.5703 21.9648C77.1328 22.1445 76.6055 22.2344 75.9883 22.2344C75.1914 22.2344 74.4688 22.0742 73.8203 21.7539C73.1719 21.4258 72.6523 20.9766 72.2617 20.4062C71.8789 19.8359 71.6875 19.1797 71.6875 18.4375C71.6875 17.7734 71.8086 17.1836 72.0508 16.668C72.293 16.1523 72.6562 15.7148 73.1406 15.3555C73.6328 14.9961 74.25 14.7266 74.9922 14.5469C75.7344 14.3594 76.6016 14.2656 77.5938 14.2656H79.4219ZM91.5469 18.4727C91.5469 18.2383 91.4727 18.0312 91.3242 17.8516C91.1836 17.6719 90.9258 17.5078 90.5508 17.3594C90.1836 17.2109 89.6641 17.0625 88.9922 16.9141C88.3594 16.7812 87.7695 16.6094 87.2227 16.3984C86.6758 16.1797 86.1992 15.918 85.793 15.6133C85.3867 15.3008 85.0703 14.9336 84.8438 14.5117C84.6172 14.082 84.5039 13.5938 84.5039 13.0469C84.5039 12.5156 84.6172 12.0117 84.8438 11.5352C85.0781 11.0586 85.4141 10.6367 85.8516 10.2695C86.2969 9.90234 86.8359 9.61328 87.4688 9.40234C88.1094 9.19141 88.8359 9.08594 89.6484 9.08594C90.7656 9.08594 91.7305 9.26172 92.543 9.61328C93.3555 9.95703 93.9805 10.4414 94.418 11.0664C94.8555 11.6836 95.0742 12.3906 95.0742 13.1875H91.418C91.418 12.8594 91.3555 12.5742 91.2305 12.332C91.1055 12.0898 90.9141 11.9023 90.6562 11.7695C90.3984 11.6289 90.0586 11.5586 89.6367 11.5586C89.3086 11.5586 89.0195 11.6172 88.7695 11.7344C88.5273 11.8438 88.3359 11.9961 88.1953 12.1914C88.0625 12.3867 87.9961 12.6133 87.9961 12.8711C87.9961 13.0508 88.0352 13.2148 88.1133 13.3633C88.1992 13.5039 88.3281 13.6367 88.5 13.7617C88.6797 13.8789 88.9102 13.9844 89.1914 14.0781C89.4805 14.1719 89.832 14.2617 90.2461 14.3477C91.1289 14.5117 91.9336 14.7422 92.6602 15.0391C93.3945 15.3359 93.9805 15.7461 94.418 16.2695C94.8633 16.793 95.0859 17.4844 95.0859 18.3438C95.0859 18.9062 94.957 19.4219 94.6992 19.8906C94.4492 20.3594 94.0859 20.7695 93.6094 21.1211C93.1328 21.4727 92.5625 21.7461 91.8984 21.9414C91.2344 22.1367 90.4844 22.2344 89.6484 22.2344C88.4531 22.2344 87.4414 22.0195 86.6133 21.5898C85.7852 21.1602 85.1602 20.6211 84.7383 19.9727C84.3242 19.3164 84.1172 18.6445 84.1172 17.957H87.5508C87.5664 18.3789 87.6719 18.7227 87.8672 18.9883C88.0703 19.2539 88.332 19.4492 88.6523 19.5742C88.9727 19.6914 89.332 19.75 89.7305 19.75C90.1289 19.75 90.4609 19.6953 90.7266 19.5859C90.9922 19.4766 91.1953 19.3281 91.3359 19.1406C91.4766 18.9453 91.5469 18.7227 91.5469 18.4727ZM109.984 19.1641V4H113.664V22H110.359L109.984 19.1641ZM102.086 15.8125V15.5664C102.086 14.6055 102.191 13.7305 102.402 12.9414C102.621 12.1445 102.938 11.4609 103.352 10.8906C103.773 10.3125 104.293 9.86719 104.91 9.55469C105.527 9.24219 106.234 9.08594 107.031 9.08594C107.766 9.08594 108.406 9.25 108.953 9.57812C109.5 9.89844 109.965 10.3516 110.348 10.9375C110.738 11.5156 111.055 12.1992 111.297 12.9883C111.539 13.7695 111.723 14.6172 111.848 15.5312V15.9531C111.73 16.8281 111.547 17.6445 111.297 18.4023C111.055 19.1602 110.738 19.8281 110.348 20.4062C109.965 20.9766 109.496 21.4258 108.941 21.7539C108.395 22.0742 107.75 22.2344 107.008 22.2344C106.211 22.2344 105.504 22.0742 104.887 21.7539C104.277 21.4336 103.766 20.9844 103.352 20.4062C102.938 19.8281 102.621 19.1484 102.402 18.3672C102.191 17.5859 102.086 16.7344 102.086 15.8125ZM105.742 15.5664V15.8125C105.742 16.3125 105.777 16.7773 105.848 17.207C105.926 17.6367 106.051 18.0156 106.223 18.3438C106.395 18.6719 106.621 18.9297 106.902 19.1172C107.184 19.2969 107.527 19.3867 107.934 19.3867C108.48 19.3867 108.93 19.2617 109.281 19.0117C109.633 18.7539 109.898 18.3984 110.078 17.9453C110.258 17.4922 110.352 16.9648 110.359 16.3633V15.1328C110.359 14.6328 110.309 14.1836 110.207 13.7852C110.105 13.3867 109.953 13.0508 109.75 12.7773C109.555 12.5039 109.309 12.2969 109.012 12.1562C108.715 12.0078 108.363 11.9336 107.957 11.9336C107.559 11.9336 107.219 12.0273 106.938 12.2148C106.656 12.3945 106.426 12.6484 106.246 12.9766C106.074 13.3047 105.945 13.6914 105.859 14.1367C105.781 14.5742 105.742 15.0508 105.742 15.5664ZM121.828 22.2344C120.82 22.2344 119.918 22.0742 119.121 21.7539C118.324 21.4336 117.648 20.9922 117.094 20.4297C116.547 19.8594 116.129 19.2031 115.84 18.4609C115.551 17.7188 115.406 16.9258 115.406 16.082V15.6367C115.406 14.6914 115.539 13.8203 115.805 13.0234C116.07 12.2266 116.457 11.5352 116.965 10.9492C117.48 10.3555 118.113 9.89844 118.863 9.57812C119.613 9.25 120.469 9.08594 121.43 9.08594C122.328 9.08594 123.129 9.23438 123.832 9.53125C124.535 9.82031 125.129 10.2383 125.613 10.7852C126.098 11.3242 126.465 11.9766 126.715 12.7422C126.973 13.5 127.102 14.3516 127.102 15.2969V16.7969H116.883V14.4414H123.516V14.1602C123.516 13.7148 123.434 13.3242 123.27 12.9883C123.113 12.6523 122.879 12.3945 122.566 12.2148C122.262 12.0273 121.875 11.9336 121.406 11.9336C120.961 11.9336 120.59 12.0273 120.293 12.2148C119.996 12.4023 119.758 12.668 119.578 13.0117C119.406 13.3477 119.281 13.7422 119.203 14.1953C119.125 14.6406 119.086 15.1211 119.086 15.6367V16.082C119.086 16.5742 119.152 17.0234 119.285 17.4297C119.418 17.8359 119.613 18.1836 119.871 18.4727C120.129 18.7617 120.441 18.9883 120.809 19.1523C121.176 19.3164 121.594 19.3984 122.062 19.3984C122.641 19.3984 123.191 19.2891 123.715 19.0703C124.238 18.8438 124.691 18.4922 125.074 18.0156L126.785 19.9727C126.527 20.3477 126.164 20.7109 125.695 21.0625C125.234 21.4062 124.68 21.6875 124.031 21.9062C123.383 22.125 122.648 22.2344 121.828 22.2344ZM144.355 16.2812H148.152C148.09 17.4531 147.77 18.4883 147.191 19.3867C146.621 20.2773 145.828 20.9766 144.812 21.4844C143.797 21.9844 142.59 22.2344 141.191 22.2344C140.074 22.2344 139.074 22.043 138.191 21.6602C137.309 21.2773 136.559 20.7305 135.941 20.0195C135.332 19.3008 134.863 18.4375 134.535 17.4297C134.215 16.4141 134.055 15.2695 134.055 13.9961V12.9531C134.055 11.6797 134.223 10.5352 134.559 9.51953C134.895 8.50391 135.375 7.63672 136 6.91797C136.625 6.19922 137.375 5.64844 138.25 5.26562C139.125 4.88281 140.102 4.69141 141.18 4.69141C142.633 4.69141 143.859 4.95312 144.859 5.47656C145.859 6 146.633 6.71875 147.18 7.63281C147.734 8.54688 148.066 9.58984 148.176 10.7617H144.367C144.336 10.0977 144.211 9.53906 143.992 9.08594C143.773 8.625 143.438 8.27734 142.984 8.04297C142.531 7.80859 141.93 7.69141 141.18 7.69141C140.633 7.69141 140.152 7.79297 139.738 7.99609C139.332 8.19922 138.992 8.51562 138.719 8.94531C138.453 9.375 138.254 9.92188 138.121 10.5859C137.988 11.2422 137.922 12.0234 137.922 12.9297V13.9961C137.922 14.8945 137.98 15.6719 138.098 16.3281C138.215 16.9844 138.402 17.5273 138.66 17.957C138.926 18.3867 139.266 18.707 139.68 18.918C140.094 19.1289 140.598 19.2344 141.191 19.2344C141.871 19.2344 142.438 19.1289 142.891 18.918C143.344 18.6992 143.691 18.3711 143.934 17.9336C144.176 17.4961 144.316 16.9453 144.355 16.2812ZM149.309 15.7891V15.543C149.309 14.6133 149.441 13.7578 149.707 12.9766C149.973 12.1875 150.363 11.5039 150.879 10.9258C151.395 10.3477 152.027 9.89844 152.777 9.57812C153.527 9.25 154.387 9.08594 155.355 9.08594C156.34 9.08594 157.207 9.25 157.957 9.57812C158.715 9.89844 159.352 10.3477 159.867 10.9258C160.383 11.5039 160.773 12.1875 161.039 12.9766C161.305 13.7578 161.438 14.6133 161.438 15.543V15.7891C161.438 16.7109 161.305 17.5664 161.039 18.3555C160.773 19.1367 160.383 19.8203 159.867 20.4062C159.352 20.9844 158.719 21.4336 157.969 21.7539C157.219 22.0742 156.355 22.2344 155.379 22.2344C154.41 22.2344 153.547 22.0742 152.789 21.7539C152.031 21.4336 151.395 20.9844 150.879 20.4062C150.363 19.8203 149.973 19.1367 149.707 18.3555C149.441 17.5664 149.309 16.7109 149.309 15.7891ZM152.977 15.543V15.7891C152.977 16.2891 153.016 16.7578 153.094 17.1953C153.18 17.6328 153.316 18.0156 153.504 18.3438C153.691 18.6719 153.938 18.9297 154.242 19.1172C154.555 19.2969 154.934 19.3867 155.379 19.3867C155.824 19.3867 156.199 19.2969 156.504 19.1172C156.809 18.9297 157.055 18.6719 157.242 18.3438C157.43 18.0156 157.562 17.6328 157.641 17.1953C157.727 16.7578 157.77 16.2891 157.77 15.7891V15.543C157.77 15.0508 157.727 14.5898 157.641 14.1602C157.562 13.7227 157.43 13.3359 157.242 13C157.055 12.6641 156.805 12.4023 156.492 12.2148C156.188 12.0273 155.809 11.9336 155.355 11.9336C154.918 11.9336 154.547 12.0273 154.242 12.2148C153.938 12.4023 153.691 12.6641 153.504 13C153.316 13.3359 153.18 13.7227 153.094 14.1602C153.016 14.5898 152.977 15.0508 152.977 15.543ZM166.777 11.9805V22H163.121V9.32031H166.555L166.777 11.9805ZM166.309 15.2148L165.383 15.2383C165.383 14.3477 165.488 13.5312 165.699 12.7891C165.918 12.0391 166.234 11.3867 166.648 10.832C167.062 10.2773 167.574 9.84766 168.184 9.54297C168.801 9.23828 169.512 9.08594 170.316 9.08594C170.879 9.08594 171.391 9.17188 171.852 9.34375C172.312 9.50781 172.707 9.76953 173.035 10.1289C173.371 10.4805 173.629 10.9414 173.809 11.5117C173.988 12.0742 174.078 12.75 174.078 13.5391V22H170.422V13.9844C170.422 13.4219 170.352 12.9961 170.211 12.707C170.078 12.4102 169.883 12.207 169.625 12.0977C169.367 11.9883 169.059 11.9336 168.699 11.9336C168.309 11.9336 167.961 12.0195 167.656 12.1914C167.359 12.3555 167.109 12.5859 166.906 12.8828C166.703 13.1797 166.551 13.5273 166.449 13.9258C166.355 14.3242 166.309 14.7539 166.309 15.2148ZM173.703 15.0273L172.543 15.1211C172.543 14.2617 172.645 13.4648 172.848 12.7305C173.051 11.9961 173.355 11.3594 173.762 10.8203C174.168 10.2734 174.672 9.84766 175.273 9.54297C175.883 9.23828 176.59 9.08594 177.395 9.08594C177.988 9.08594 178.527 9.17188 179.012 9.34375C179.504 9.51562 179.926 9.79297 180.277 10.1758C180.637 10.5586 180.914 11.0625 181.109 11.6875C181.305 12.3047 181.402 13.0625 181.402 13.9609V22H177.723V13.9609C177.723 13.4062 177.652 12.9844 177.512 12.6953C177.379 12.4062 177.184 12.207 176.926 12.0977C176.676 11.9883 176.375 11.9336 176.023 11.9336C175.633 11.9336 175.293 12.0156 175.004 12.1797C174.715 12.3359 174.473 12.5547 174.277 12.8359C174.082 13.1094 173.938 13.4336 173.844 13.8086C173.75 14.1836 173.703 14.5898 173.703 15.0273ZM187.27 11.7578V26.875H183.613V9.32031H187.023L187.27 11.7578ZM195.18 15.5195V15.7656C195.18 16.6875 195.074 17.543 194.863 18.332C194.652 19.1133 194.336 19.7969 193.914 20.3828C193.5 20.9688 192.988 21.4258 192.379 21.7539C191.77 22.0742 191.062 22.2344 190.258 22.2344C189.492 22.2344 188.828 22.0742 188.266 21.7539C187.711 21.4258 187.242 20.9727 186.859 20.3945C186.484 19.8086 186.18 19.1406 185.945 18.3906C185.719 17.6328 185.543 16.8242 185.418 15.9648V15.4844C185.543 14.5703 185.723 13.7227 185.957 12.9414C186.191 12.1602 186.496 11.4844 186.871 10.9141C187.246 10.3359 187.711 9.88672 188.266 9.56641C188.82 9.24609 189.48 9.08594 190.246 9.08594C191.043 9.08594 191.75 9.23828 192.367 9.54297C192.984 9.84766 193.5 10.2852 193.914 10.8555C194.336 11.418 194.652 12.0938 194.863 12.8828C195.074 13.6719 195.18 14.5508 195.18 15.5195ZM191.512 15.7656V15.5195C191.512 15.0039 191.473 14.5312 191.395 14.1016C191.316 13.6641 191.191 13.2852 191.02 12.9648C190.848 12.6367 190.621 12.3828 190.34 12.2031C190.059 12.0234 189.715 11.9336 189.309 11.9336C188.871 11.9336 188.5 12.0039 188.195 12.1445C187.891 12.2852 187.645 12.4922 187.457 12.7656C187.27 13.0312 187.133 13.3594 187.047 13.75C186.969 14.1406 186.926 14.5859 186.918 15.0859V16.375C186.926 16.9609 187.008 17.4844 187.164 17.9453C187.328 18.3984 187.582 18.7539 187.926 19.0117C188.277 19.2617 188.746 19.3867 189.332 19.3867C189.746 19.3867 190.09 19.2969 190.363 19.1172C190.645 18.9297 190.867 18.668 191.031 18.332C191.203 17.9961 191.324 17.6094 191.395 17.1719C191.473 16.7344 191.512 16.2656 191.512 15.7656ZM200.543 12.2734V22H196.887V9.32031H200.32L200.543 12.2734ZM204.328 9.22656L204.27 12.6367C204.113 12.6133 203.91 12.5938 203.66 12.5781C203.41 12.5547 203.195 12.543 203.016 12.543C202.547 12.543 202.141 12.6016 201.797 12.7188C201.461 12.8281 201.18 12.9922 200.953 13.2109C200.734 13.4297 200.57 13.7031 200.461 14.0312C200.352 14.3516 200.297 14.7227 200.297 15.1445L199.605 14.8047C199.605 13.9688 199.688 13.2031 199.852 12.5078C200.016 11.8125 200.254 11.2109 200.566 10.7031C200.879 10.1875 201.262 9.78906 201.715 9.50781C202.168 9.22656 202.684 9.08594 203.262 9.08594C203.449 9.08594 203.641 9.09766 203.836 9.12109C204.031 9.14453 204.195 9.17969 204.328 9.22656ZM211.918 18.9766V13.5391C211.918 13.1562 211.859 12.8281 211.742 12.5547C211.625 12.2812 211.441 12.0664 211.191 11.9102C210.941 11.7539 210.617 11.6758 210.219 11.6758C209.883 11.6758 209.59 11.7344 209.34 11.8516C209.098 11.9688 208.91 12.1367 208.777 12.3555C208.652 12.5742 208.59 12.8438 208.59 13.1641H204.934C204.934 12.5938 205.062 12.0625 205.32 11.5703C205.578 11.0781 205.945 10.6445 206.422 10.2695C206.906 9.89453 207.484 9.60547 208.156 9.40234C208.828 9.19141 209.582 9.08594 210.418 9.08594C211.41 9.08594 212.293 9.25391 213.066 9.58984C213.848 9.91797 214.465 10.4141 214.918 11.0781C215.371 11.7344 215.598 12.5625 215.598 13.5625V18.8711C215.598 19.6367 215.641 20.2383 215.727 20.6758C215.82 21.1055 215.953 21.4805 216.125 21.8008V22H212.434C212.262 21.6328 212.133 21.1797 212.047 20.6406C211.961 20.0938 211.918 19.5391 211.918 18.9766ZM212.375 14.2656L212.398 16.2812H210.582C210.176 16.2812 209.824 16.332 209.527 16.4336C209.238 16.5352 209.004 16.6758 208.824 16.8555C208.645 17.0273 208.512 17.2305 208.426 17.4648C208.348 17.6914 208.309 17.9414 208.309 18.2148C208.309 18.4727 208.371 18.707 208.496 18.918C208.621 19.1211 208.793 19.2812 209.012 19.3984C209.23 19.5156 209.484 19.5742 209.773 19.5742C210.25 19.5742 210.656 19.4805 210.992 19.293C211.336 19.1055 211.602 18.8789 211.789 18.6133C211.977 18.3398 212.07 18.0859 212.07 17.8516L212.949 19.375C212.809 19.6875 212.637 20.0117 212.434 20.3477C212.23 20.6758 211.973 20.9844 211.66 21.2734C211.348 21.5547 210.969 21.7852 210.523 21.9648C210.086 22.1445 209.559 22.2344 208.941 22.2344C208.145 22.2344 207.422 22.0742 206.773 21.7539C206.125 21.4258 205.605 20.9766 205.215 20.4062C204.832 19.8359 204.641 19.1797 204.641 18.4375C204.641 17.7734 204.762 17.1836 205.004 16.668C205.246 16.1523 205.609 15.7148 206.094 15.3555C206.586 14.9961 207.203 14.7266 207.945 14.5469C208.688 14.3594 209.555 14.2656 210.547 14.2656H212.375ZM224.5 18.4727C224.5 18.2383 224.426 18.0312 224.277 17.8516C224.137 17.6719 223.879 17.5078 223.504 17.3594C223.137 17.2109 222.617 17.0625 221.945 16.9141C221.312 16.7812 220.723 16.6094 220.176 16.3984C219.629 16.1797 219.152 15.918 218.746 15.6133C218.34 15.3008 218.023 14.9336 217.797 14.5117C217.57 14.082 217.457 13.5938 217.457 13.0469C217.457 12.5156 217.57 12.0117 217.797 11.5352C218.031 11.0586 218.367 10.6367 218.805 10.2695C219.25 9.90234 219.789 9.61328 220.422 9.40234C221.062 9.19141 221.789 9.08594 222.602 9.08594C223.719 9.08594 224.684 9.26172 225.496 9.61328C226.309 9.95703 226.934 10.4414 227.371 11.0664C227.809 11.6836 228.027 12.3906 228.027 13.1875H224.371C224.371 12.8594 224.309 12.5742 224.184 12.332C224.059 12.0898 223.867 11.9023 223.609 11.7695C223.352 11.6289 223.012 11.5586 222.59 11.5586C222.262 11.5586 221.973 11.6172 221.723 11.7344C221.48 11.8438 221.289 11.9961 221.148 12.1914C221.016 12.3867 220.949 12.6133 220.949 12.8711C220.949 13.0508 220.988 13.2148 221.066 13.3633C221.152 13.5039 221.281 13.6367 221.453 13.7617C221.633 13.8789 221.863 13.9844 222.145 14.0781C222.434 14.1719 222.785 14.2617 223.199 14.3477C224.082 14.5117 224.887 14.7422 225.613 15.0391C226.348 15.3359 226.934 15.7461 227.371 16.2695C227.816 16.793 228.039 17.4844 228.039 18.3438C228.039 18.9062 227.91 19.4219 227.652 19.8906C227.402 20.3594 227.039 20.7695 226.562 21.1211C226.086 21.4727 225.516 21.7461 224.852 21.9414C224.188 22.1367 223.438 22.2344 222.602 22.2344C221.406 22.2344 220.395 22.0195 219.566 21.5898C218.738 21.1602 218.113 20.6211 217.691 19.9727C217.277 19.3164 217.07 18.6445 217.07 17.957H220.504C220.52 18.3789 220.625 18.7227 220.82 18.9883C221.023 19.2539 221.285 19.4492 221.605 19.5742C221.926 19.6914 222.285 19.75 222.684 19.75C223.082 19.75 223.414 19.6953 223.68 19.5859C223.945 19.4766 224.148 19.3281 224.289 19.1406C224.43 18.9453 224.5 18.7227 224.5 18.4727Z" fill="#0582C8"/>
</svg>
