<svg width="174" height="23" viewBox="0 0 174 23" fill="none" xmlns="http://www.w3.org/2000/svg">
  <defs></defs>
  <mask id="mask0_54801_192" style="mask-type:luminance" maskUnits="userSpaceOnUse" x="0" y="0" width="23" height="23">
    <path d="M1 7.63184H22L19.6789 22.0003H3.32105L1 7.63184Z" fill="#555555" stroke="white" stroke-width="1.89474" stroke-linecap="round" stroke-linejoin="round"></path>
    <path d="M17.5788 7.63158C17.5788 3.96929 14.8571 1 11.4998 1C8.14261 1 5.4209 3.96929 5.4209 7.63158" stroke="white" stroke-width="1.89474" stroke-linecap="round" stroke-linejoin="round"></path>
    <path d="M7.63163 13.7105C8.24205 13.7105 8.73689 13.2157 8.73689 12.6053C8.73689 11.9948 8.24205 11.5 7.63163 11.5C7.02121 11.5 6.52637 11.9948 6.52637 12.6053C6.52637 13.2157 7.02121 13.7105 7.63163 13.7105Z" fill="white"></path>
    <path d="M8.18457 16.4736C8.18457 16.4736 9.28983 18.1315 11.5004 18.1315C13.7109 18.1315 14.8161 16.4736 14.8161 16.4736" stroke="white" stroke-width="1.89474" stroke-linecap="round" stroke-linejoin="round"></path>
    <path d="M15.368 13.7105C15.9784 13.7105 16.4732 13.2157 16.4732 12.6053C16.4732 11.9948 15.9784 11.5 15.368 11.5C14.7575 11.5 14.2627 11.9948 14.2627 12.6053C14.2627 13.2157 14.7575 13.7105 15.368 13.7105Z" fill="white"></path>
  </mask>
  <g mask="url(#mask0_54801_192)">
    <path d="M-2.76367 -1.7627H23.7626V24.7636H-2.76367V-1.7627Z" fill="#0582C8"></path>
  </g>
  <path d="M43.5391 17.0469V20H34.9258V17.0469H43.5391ZM36.2266 2.9375V20H32.4062V2.9375H36.2266ZM48.832 7.32031V20H45.1641V7.32031H48.832ZM44.9414 4.03906C44.9414 3.50781 45.1289 3.07422 45.5039 2.73828C45.8789 2.39453 46.3711 2.22266 46.9805 2.22266C47.5898 2.22266 48.082 2.39453 48.457 2.73828C48.8398 3.07422 49.0312 3.50781 49.0312 4.03906C49.0312 4.5625 48.8398 4.99609 48.457 5.33984C48.082 5.67578 47.5898 5.84375 46.9805 5.84375C46.3711 5.84375 45.8789 5.67578 45.5039 5.33984C45.1289 4.99609 44.9414 4.5625 44.9414 4.03906ZM57.9688 16.4727C57.9688 16.2383 57.8945 16.0312 57.7461 15.8516C57.6055 15.6719 57.3477 15.5078 56.9727 15.3594C56.6055 15.2109 56.0859 15.0625 55.4141 14.9141C54.7812 14.7812 54.1914 14.6094 53.6445 14.3984C53.0977 14.1797 52.6211 13.918 52.2148 13.6133C51.8086 13.3008 51.4922 12.9336 51.2656 12.5117C51.0391 12.082 50.9258 11.5938 50.9258 11.0469C50.9258 10.5156 51.0391 10.0117 51.2656 9.53516C51.5 9.05859 51.8359 8.63672 52.2734 8.26953C52.7188 7.90234 53.2578 7.61328 53.8906 7.40234C54.5312 7.19141 55.2578 7.08594 56.0703 7.08594C57.1875 7.08594 58.1523 7.26172 58.9648 7.61328C59.7773 7.95703 60.4023 8.44141 60.8398 9.06641C61.2773 9.68359 61.4961 10.3906 61.4961 11.1875H57.8398C57.8398 10.8594 57.7773 10.5742 57.6523 10.332C57.5273 10.0898 57.3359 9.90234 57.0781 9.76953C56.8203 9.62891 56.4805 9.55859 56.0586 9.55859C55.7305 9.55859 55.4414 9.61719 55.1914 9.73438C54.9492 9.84375 54.7578 9.99609 54.6172 10.1914C54.4844 10.3867 54.418 10.6133 54.418 10.8711C54.418 11.0508 54.457 11.2148 54.5352 11.3633C54.6211 11.5039 54.75 11.6367 54.9219 11.7617C55.1016 11.8789 55.332 11.9844 55.6133 12.0781C55.9023 12.1719 56.2539 12.2617 56.668 12.3477C57.5508 12.5117 58.3555 12.7422 59.082 13.0391C59.8164 13.3359 60.4023 13.7461 60.8398 14.2695C61.2852 14.793 61.5078 15.4844 61.5078 16.3438C61.5078 16.9062 61.3789 17.4219 61.1211 17.8906C60.8711 18.3594 60.5078 18.7695 60.0312 19.1211C59.5547 19.4727 58.9844 19.7461 58.3203 19.9414C57.6562 20.1367 56.9062 20.2344 56.0703 20.2344C54.875 20.2344 53.8633 20.0195 53.0352 19.5898C52.207 19.1602 51.582 18.6211 51.1602 17.9727C50.7461 17.3164 50.5391 16.6445 50.5391 15.957H53.9727C53.9883 16.3789 54.0938 16.7227 54.2891 16.9883C54.4922 17.2539 54.7539 17.4492 55.0742 17.5742C55.3945 17.6914 55.7539 17.75 56.1523 17.75C56.5508 17.75 56.8828 17.6953 57.1484 17.5859C57.4141 17.4766 57.6172 17.3281 57.7578 17.1406C57.8984 16.9453 57.9688 16.7227 57.9688 16.4727ZM69.7422 7.32031V9.88672H62.2188V7.32031H69.7422ZM63.9414 4.17969H67.6094V16.0273C67.6094 16.3789 67.6523 16.6484 67.7383 16.8359C67.8242 17.0234 67.9648 17.1562 68.1602 17.2344C68.3555 17.3047 68.6055 17.3398 68.9102 17.3398C69.1289 17.3398 69.3164 17.332 69.4727 17.3164C69.6289 17.3008 69.7734 17.2812 69.9062 17.2578V19.9062C69.5938 20.0078 69.2617 20.0859 68.9102 20.1406C68.5586 20.2031 68.1758 20.2344 67.7617 20.2344C66.9727 20.2344 66.2891 20.1055 65.7109 19.8477C65.1406 19.5898 64.7031 19.1836 64.3984 18.6289C64.0938 18.0664 63.9414 17.3359 63.9414 16.4375V4.17969ZM77.9648 16.9766V11.5391C77.9648 11.1562 77.9062 10.8281 77.7891 10.5547C77.6719 10.2812 77.4883 10.0664 77.2383 9.91016C76.9883 9.75391 76.6641 9.67578 76.2656 9.67578C75.9297 9.67578 75.6367 9.73438 75.3867 9.85156C75.1445 9.96875 74.957 10.1367 74.8242 10.3555C74.6992 10.5742 74.6367 10.8438 74.6367 11.1641H70.9805C70.9805 10.5938 71.1094 10.0625 71.3672 9.57031C71.625 9.07812 71.9922 8.64453 72.4688 8.26953C72.9531 7.89453 73.5312 7.60547 74.2031 7.40234C74.875 7.19141 75.6289 7.08594 76.4648 7.08594C77.457 7.08594 78.3398 7.25391 79.1133 7.58984C79.8945 7.91797 80.5117 8.41406 80.9648 9.07812C81.418 9.73438 81.6445 10.5625 81.6445 11.5625V16.8711C81.6445 17.6367 81.6875 18.2383 81.7734 18.6758C81.8672 19.1055 82 19.4805 82.1719 19.8008V20H78.4805C78.3086 19.6328 78.1797 19.1797 78.0938 18.6406C78.0078 18.0938 77.9648 17.5391 77.9648 16.9766ZM78.4219 12.2656L78.4453 14.2812H76.6289C76.2227 14.2812 75.8711 14.332 75.5742 14.4336C75.2852 14.5352 75.0508 14.6758 74.8711 14.8555C74.6914 15.0273 74.5586 15.2305 74.4727 15.4648C74.3945 15.6914 74.3555 15.9414 74.3555 16.2148C74.3555 16.4727 74.418 16.707 74.543 16.918C74.668 17.1211 74.8398 17.2812 75.0586 17.3984C75.2773 17.5156 75.5312 17.5742 75.8203 17.5742C76.2969 17.5742 76.7031 17.4805 77.0391 17.293C77.3828 17.1055 77.6484 16.8789 77.8359 16.6133C78.0234 16.3398 78.1172 16.0859 78.1172 15.8516L78.9961 17.375C78.8555 17.6875 78.6836 18.0117 78.4805 18.3477C78.2773 18.6758 78.0195 18.9844 77.707 19.2734C77.3945 19.5547 77.0156 19.7852 76.5703 19.9648C76.1328 20.1445 75.6055 20.2344 74.9883 20.2344C74.1914 20.2344 73.4688 20.0742 72.8203 19.7539C72.1719 19.4258 71.6523 18.9766 71.2617 18.4062C70.8789 17.8359 70.6875 17.1797 70.6875 16.4375C70.6875 15.7734 70.8086 15.1836 71.0508 14.668C71.293 14.1523 71.6562 13.7148 72.1406 13.3555C72.6328 12.9961 73.25 12.7266 73.9922 12.5469C74.7344 12.3594 75.6016 12.2656 76.5938 12.2656H78.4219ZM93.5312 2.9375V20H89.7109V2.9375H93.5312ZM100.246 10.1328V13.0859H92.4648V10.1328H100.246ZM100.996 2.9375V5.90234H92.4648V2.9375H100.996ZM108.738 16.9766V11.5391C108.738 11.1562 108.68 10.8281 108.562 10.5547C108.445 10.2812 108.262 10.0664 108.012 9.91016C107.762 9.75391 107.438 9.67578 107.039 9.67578C106.703 9.67578 106.41 9.73438 106.16 9.85156C105.918 9.96875 105.73 10.1367 105.598 10.3555C105.473 10.5742 105.41 10.8438 105.41 11.1641H101.754C101.754 10.5938 101.883 10.0625 102.141 9.57031C102.398 9.07812 102.766 8.64453 103.242 8.26953C103.727 7.89453 104.305 7.60547 104.977 7.40234C105.648 7.19141 106.402 7.08594 107.238 7.08594C108.23 7.08594 109.113 7.25391 109.887 7.58984C110.668 7.91797 111.285 8.41406 111.738 9.07812C112.191 9.73438 112.418 10.5625 112.418 11.5625V16.8711C112.418 17.6367 112.461 18.2383 112.547 18.6758C112.641 19.1055 112.773 19.4805 112.945 19.8008V20H109.254C109.082 19.6328 108.953 19.1797 108.867 18.6406C108.781 18.0938 108.738 17.5391 108.738 16.9766ZM109.195 12.2656L109.219 14.2812H107.402C106.996 14.2812 106.645 14.332 106.348 14.4336C106.059 14.5352 105.824 14.6758 105.645 14.8555C105.465 15.0273 105.332 15.2305 105.246 15.4648C105.168 15.6914 105.129 15.9414 105.129 16.2148C105.129 16.4727 105.191 16.707 105.316 16.918C105.441 17.1211 105.613 17.2812 105.832 17.3984C106.051 17.5156 106.305 17.5742 106.594 17.5742C107.07 17.5742 107.477 17.4805 107.812 17.293C108.156 17.1055 108.422 16.8789 108.609 16.6133C108.797 16.3398 108.891 16.0859 108.891 15.8516L109.77 17.375C109.629 17.6875 109.457 18.0117 109.254 18.3477C109.051 18.6758 108.793 18.9844 108.48 19.2734C108.168 19.5547 107.789 19.7852 107.344 19.9648C106.906 20.1445 106.379 20.2344 105.762 20.2344C104.965 20.2344 104.242 20.0742 103.594 19.7539C102.945 19.4258 102.426 18.9766 102.035 18.4062C101.652 17.8359 101.461 17.1797 101.461 16.4375C101.461 15.7734 101.582 15.1836 101.824 14.668C102.066 14.1523 102.43 13.7148 102.914 13.3555C103.406 12.9961 104.023 12.7266 104.766 12.5469C105.508 12.3594 106.375 12.2656 107.367 12.2656H109.195ZM105.457 5.64453L107.777 2H111.691L108.445 5.64453H105.457ZM119.867 17.3867C120.258 17.3867 120.598 17.3125 120.887 17.1641C121.176 17.0156 121.398 16.8086 121.555 16.543C121.719 16.2695 121.801 15.9414 121.801 15.5586H125.246C125.246 16.4805 125.008 17.293 124.531 17.9961C124.062 18.6992 123.43 19.25 122.633 19.6484C121.836 20.0391 120.938 20.2344 119.938 20.2344C118.953 20.2344 118.094 20.0742 117.359 19.7539C116.625 19.4258 116.012 18.9688 115.52 18.3828C115.027 17.7969 114.656 17.1172 114.406 16.3438C114.164 15.5625 114.043 14.7188 114.043 13.8125V13.5078C114.043 12.6094 114.164 11.7695 114.406 10.9883C114.656 10.207 115.027 9.52344 115.52 8.9375C116.012 8.35156 116.621 7.89844 117.348 7.57812C118.082 7.25 118.941 7.08594 119.926 7.08594C120.965 7.08594 121.883 7.28516 122.68 7.68359C123.484 8.08203 124.113 8.65625 124.566 9.40625C125.02 10.1484 125.246 11.043 125.246 12.0898H121.801C121.801 11.6836 121.727 11.3203 121.578 11C121.438 10.6719 121.219 10.4141 120.922 10.2266C120.633 10.0312 120.273 9.93359 119.844 9.93359C119.398 9.93359 119.031 10.0312 118.742 10.2266C118.461 10.4141 118.246 10.6758 118.098 11.0117C117.949 11.3477 117.848 11.7305 117.793 12.1602C117.738 12.582 117.711 13.0312 117.711 13.5078V13.8125C117.711 14.2969 117.738 14.7578 117.793 15.1953C117.848 15.625 117.949 16.0039 118.098 16.332C118.254 16.6602 118.473 16.918 118.754 17.1055C119.035 17.293 119.406 17.3867 119.867 17.3867ZM130.668 7.32031V20H127V7.32031H130.668ZM126.777 4.03906C126.777 3.50781 126.965 3.07422 127.34 2.73828C127.715 2.39453 128.207 2.22266 128.816 2.22266C129.426 2.22266 129.918 2.39453 130.293 2.73828C130.676 3.07422 130.867 3.50781 130.867 4.03906C130.867 4.5625 130.676 4.99609 130.293 5.33984C129.918 5.67578 129.426 5.84375 128.816 5.84375C128.207 5.84375 127.715 5.67578 127.34 5.33984C126.965 4.99609 126.777 4.5625 126.777 4.03906ZM136.91 2V20H133.242V2H136.91Z" fill="#0582C8"></path>
  <mask id="mask1_54801_192" style="mask-type:luminance" maskUnits="userSpaceOnUse" x="148" y="0" width="26" height="23">
    <path d="M170 16.1667H154.834L151.917 4.5H172.917L170 16.1667Z" fill="#555555"></path>
    <path d="M149 1H151.042L151.917 4.5M151.917 4.5L154.833 16.1667H170L172.917 4.5H151.917Z" stroke="white" stroke-width="1.83333" stroke-linecap="round" stroke-linejoin="round"></path>
    <path d="M154.833 22C155.8 22 156.583 21.2165 156.583 20.25C156.583 19.2835 155.8 18.5 154.833 18.5C153.867 18.5 153.083 19.2835 153.083 20.25C153.083 21.2165 153.867 22 154.833 22Z" stroke="white" stroke-width="1.83333" stroke-linecap="round" stroke-linejoin="round"></path>
    <path d="M170 22C170.966 22 171.75 21.2165 171.75 20.25C171.75 19.2835 170.966 18.5 170 18.5C169.034 18.5 168.25 19.2835 168.25 20.25C168.25 21.2165 169.034 22 170 22Z" stroke="white" stroke-width="1.83333" stroke-linecap="round" stroke-linejoin="round"></path>
  </mask>
  <g mask="url(#mask1_54801_192)">
    <path d="M147.25 -2.5H175.25V25.5H147.25V-2.5Z" fill="#0582C8" style="stroke-opacity: 0.06;"></path>
  </g>
</svg>